# xmcd CD database file
#
# Track frame offsets:
#	150
#	19227
#	30928
#	46274
#	61645
#	72666
#	92357
#	113587
#	130575
#	142515
#	153180
#
# Disc length: 2258 seconds
#
# Revision: 0
# Processed by: cddbd v1.5.2PL0 Copyright (c) Steve Scherf et al.
# Submitted via: CDex 2.07
#
DISCID=7608d00b
DTITLE=DC Snakebuster - DC Snakebuster
DYEAR=2018
DGENRE=Blues
TTITLE0=On the road again
TTITLE1=I'm ready
TTITLE2=How many more years
TTITLE3=Crazy mama
TTITLE4=Big boss man
TTITLE5=Personal Jesus
TTITLE6=I wish you would
TTITLE7=Alabama train
TTITLE8=I got my mojo working
TTITLE9=Hi-heel sneakers
TTITLE10=Baby please don't go
EXTD=YEAR: 2018
EXTT0=
EXTT1=
EXTT2=
EXTT3=
EXTT4=
EXTT5=
EXTT6=
EXTT7=
EXTT8=
EXTT9=
EXTT10=
PLAYORDER=
